<?xml version="1.0" encoding="utf-8"?>
<!-- Generator: Adobe Illustrator 27.4.1, SVG Export Plug-In . SVG Version: 6.00 Build 0)  -->
<svg version="1.1" id="Layer_1" xmlns="http://www.w3.org/2000/svg" xmlns:xlink="http://www.w3.org/1999/xlink" x="0px" y="0px"
	 viewBox="0 0 566.93 227.86" style="enable-background:new 0 0 566.93 227.86;" xml:space="preserve">
<style type="text/css">
	.st0{clip-path:url(#SVGID_00000172411428666635795710000000853409603083955863_);}
	.st1{clip-path:url(#SVGID_00000060711173993181896750000010447576171787136942_);fill:#2CBCB3;}
	.st2{clip-path:url(#SVGID_00000088103630210870463820000008518829870597797261_);}
	.st3{clip-path:url(#SVGID_00000029036522163067894770000005836827207297991354_);fill:#2CBCB3;}
	.st4{clip-path:url(#SVGID_00000031886951359214600010000007707645409493440170_);}
	.st5{clip-path:url(#SVGID_00000053526272617846926480000018320353593113429155_);}
	.st6{clip-path:url(#SVGID_00000152942277864306171980000000199621887389869975_);}
	.st7{clip-path:url(#SVGID_00000101796726129370608150000001780557665239503295_);}
	.st8{clip-path:url(#SVGID_00000180343268417671478170000014051863146219001267_);}
	.st9{clip-path:url(#SVGID_00000047780184564216200990000007776292114292348551_);fill:#FFFFFF;}
	.st10{clip-path:url(#SVGID_00000170982013060885512800000014966122154348421775_);}
	.st11{clip-path:url(#SVGID_00000008149757509865729470000001585925844771087767_);fill:#FFFFFF;}
</style>
<g>
	<g>
		<defs>
			<rect id="SVGID_00000117673606421573806860000011895996328528701068_" width="566.93" height="227.86"/>
		</defs>
		<clipPath id="SVGID_00000142165931612830332500000017873533521549995707_">
			<use xlink:href="#SVGID_00000117673606421573806860000011895996328528701068_"  style="overflow:visible;"/>
		</clipPath>
		<g style="clip-path:url(#SVGID_00000142165931612830332500000017873533521549995707_);">
			<defs>
				<rect id="SVGID_00000159442437981259520270000017472895721100893345_" width="566.93" height="227.86"/>
			</defs>
			<clipPath id="SVGID_00000011715167759689763490000008111242951364317862_">
				<use xlink:href="#SVGID_00000159442437981259520270000017472895721100893345_"  style="overflow:visible;"/>
			</clipPath>
			<path style="clip-path:url(#SVGID_00000011715167759689763490000008111242951364317862_);fill:#2CBCB3;" d="M113.96,201.12
				c-48.1,0-87.23-39.13-87.23-87.23c0-48.1,39.13-87.23,87.23-87.23c33.51,0,63.51,18.69,78.32,48.77l-21.33,10.5
				c-10.77-21.89-32.6-35.49-56.98-35.49c-34.99,0-63.46,28.47-63.46,63.46s28.47,63.46,63.46,63.46V201.12z"/>
			
				<rect x="129.49" y="175.93" transform="matrix(0.9713 -0.2377 0.2377 0.9713 -40.6549 36.7384)" style="clip-path:url(#SVGID_00000011715167759689763490000008111242951364317862_);fill:#2CBCB3;" width="5.12" height="22.11"/>
			<polygon style="clip-path:url(#SVGID_00000011715167759689763490000008111242951364317862_);fill:#2CBCB3;" points="
				137.26,174.43 141.85,171.91 155.46,180.78 148.59,168.23 152.88,165.88 163.5,185.28 158.9,187.79 145.29,178.93 152.16,191.48 
				147.87,193.83 			"/>
			<path style="clip-path:url(#SVGID_00000011715167759689763490000008111242951364317862_);fill:#2CBCB3;" d="M175.7,173.51
				c-1.93,0.73-3.88,0.9-5.85,0.5c-1.98-0.4-3.83-1.32-5.55-2.77c-1.72-1.45-2.95-3.12-3.68-5c-0.73-1.88-0.9-3.83-0.5-5.85
				c0.39-2.02,1.36-3.94,2.89-5.76c1.37-1.63,2.85-2.83,4.45-3.62c1.6-0.79,3.21-1.13,4.83-1.03c1.62,0.1,3.15,0.63,4.6,1.6
				l-3.5,4.16c-1.16-0.59-2.34-0.73-3.54-0.42c-1.21,0.31-2.31,1.05-3.32,2.24c-1.33,1.58-1.88,3.23-1.65,4.93
				c0.23,1.71,1.18,3.26,2.86,4.68c1.68,1.41,3.37,2.08,5.09,2.02c1.72-0.07,3.25-0.89,4.57-2.47c1-1.19,1.55-2.41,1.65-3.65
				c0.1-1.24-0.24-2.38-1.02-3.42l3.5-4.16c1.2,1.26,1.99,2.68,2.36,4.26c0.37,1.58,0.31,3.23-0.19,4.94
				c-0.5,1.71-1.44,3.38-2.81,5.01C179.36,171.5,177.63,172.77,175.7,173.51"/>
			
				<rect x="180.38" y="133.42" transform="matrix(0.4055 -0.9141 0.9141 0.4055 -23.2995 253.1216)" style="clip-path:url(#SVGID_00000011715167759689763490000008111242951364317862_);fill:#2CBCB3;" width="5.12" height="22.11"/>
			<polygon style="clip-path:url(#SVGID_00000011715167759689763490000008111242951364317862_);fill:#2CBCB3;" points="176,132.42 
				178.53,119.14 182.57,119.91 180.99,128.16 185.92,129.11 187.5,120.85 191.44,121.61 189.86,129.86 194.64,130.77 
				196.22,122.52 200.25,123.29 197.72,136.56 			"/>
			<polygon style="clip-path:url(#SVGID_00000011715167759689763490000008111242951364317862_);fill:#2CBCB3;" points="179,114.35 
				178.32,109.16 191.49,99.67 177.31,101.55 176.67,96.7 198.58,93.79 199.27,98.99 186.09,108.48 200.28,106.6 200.92,111.46 			
				"/>
			
				<rect x="229.85" y="53.56" style="clip-path:url(#SVGID_00000011715167759689763490000008111242951364317862_);fill:#2CBCB3;" width="8.53" height="36.86"/>
			<polygon style="clip-path:url(#SVGID_00000011715167759689763490000008111242951364317862_);fill:#2CBCB3;" points="
				247.65,53.55 256.39,53.55 269.18,77.41 269.18,53.55 277.35,53.55 277.35,90.42 268.6,90.42 255.81,66.56 255.81,90.42 
				247.65,90.42 			"/>
			<path style="clip-path:url(#SVGID_00000011715167759689763490000008111242951364317862_);fill:#2CBCB3;" d="M288.09,88.02
				c-2.56-2.3-3.84-5.52-3.84-9.66h8.53c0,2,0.53,3.56,1.61,4.69c1.07,1.12,2.54,1.68,4.4,1.68c1.58,0,2.8-0.35,3.66-1.05
				c0.86-0.7,1.29-1.7,1.29-3c0-1.12-0.32-2.03-0.97-2.71c-0.65-0.68-1.82-1.36-3.5-2.03l-6.64-2.58c-2.46-0.91-4.32-2.22-5.58-3.92
				c-1.26-1.7-1.9-3.75-1.9-6.14c0-2.14,0.54-4.03,1.61-5.66c1.07-1.63,2.6-2.9,4.58-3.79c1.98-0.89,4.29-1.34,6.92-1.34
				c2.67,0,5.02,0.48,7.06,1.45c2.04,0.96,3.62,2.33,4.74,4.08c1.12,1.76,1.69,3.81,1.69,6.16h-8.53c0-1.72-0.44-3.04-1.32-3.95
				c-0.88-0.91-2.14-1.37-3.79-1.37c-1.37,0-2.45,0.32-3.24,0.97c-0.79,0.65-1.18,1.54-1.18,2.66c0,1.02,0.39,1.89,1.16,2.61
				c0.77,0.72,2.07,1.45,3.9,2.18l6.11,2.42c2.53,0.98,4.4,2.34,5.61,4.05c1.21,1.72,1.82,3.83,1.82,6.32c0,2.28-0.56,4.28-1.69,6
				c-1.12,1.72-2.7,3.05-4.74,3.98c-2.04,0.93-4.41,1.4-7.11,1.4C294.2,91.47,290.65,90.32,288.09,88.02"/>
			<polygon style="clip-path:url(#SVGID_00000011715167759689763490000008111242951364317862_);fill:#2CBCB3;" points="
				325.58,61.14 315.47,61.14 315.47,53.55 344.22,53.55 344.22,61.14 334.06,61.14 334.06,90.42 325.58,90.42 			"/>
			
				<rect x="350.17" y="53.56" style="clip-path:url(#SVGID_00000011715167759689763490000008111242951364317862_);fill:#2CBCB3;" width="8.53" height="36.86"/>
			<polygon style="clip-path:url(#SVGID_00000011715167759689763490000008111242951364317862_);fill:#2CBCB3;" points="
				374.76,61.14 364.65,61.14 364.65,53.55 393.4,53.55 393.4,61.14 383.24,61.14 383.24,90.42 374.76,90.42 			"/>
			<path style="clip-path:url(#SVGID_00000011715167759689763490000008111242951364317862_);fill:#2CBCB3;" d="M402.49,87.84
				c-2.65-2.35-3.98-5.65-3.98-9.9V53.55h8.48v23.85c0,2.07,0.57,3.69,1.71,4.85c1.14,1.16,2.69,1.74,4.66,1.74
				c1.96,0,3.52-0.58,4.66-1.74c1.14-1.16,1.71-2.77,1.71-4.85V53.55h8.53v24.38c0,4.25-1.33,7.55-4,9.9
				c-2.67,2.35-6.3,3.53-10.9,3.53C408.76,91.36,405.14,90.19,402.49,87.84"/>
			<polygon style="clip-path:url(#SVGID_00000011715167759689763490000008111242951364317862_);fill:#2CBCB3;" points="
				443.48,61.14 433.37,61.14 433.37,53.55 462.12,53.55 462.12,61.14 451.96,61.14 451.96,90.42 443.48,90.42 			"/>
			<path style="clip-path:url(#SVGID_00000011715167759689763490000008111242951364317862_);fill:#2CBCB3;" d="M237.04,130.15
				c-3-1.67-5.31-3.98-6.92-6.92c-1.62-2.95-2.42-6.3-2.42-10.06c0-3.76,0.81-7.11,2.42-10.06c1.61-2.95,3.92-5.26,6.92-6.93
				c3-1.67,6.49-2.5,10.45-2.5c3.54,0,6.68,0.6,9.4,1.79c2.72,1.19,4.89,2.88,6.5,5.05c1.61,2.18,2.58,4.7,2.9,7.58h-9.06
				c-0.49-2.11-1.58-3.76-3.26-4.98c-1.68-1.21-3.83-1.82-6.42-1.82c-3.44,0-6.13,1.06-8.06,3.19c-1.93,2.12-2.9,5.01-2.9,8.66
				s0.97,6.54,2.9,8.66c1.93,2.12,4.61,3.18,8.06,3.18c2.6,0,4.74-0.6,6.42-1.81c1.69-1.21,2.77-2.87,3.26-4.98h9.06
				c-0.32,2.88-1.28,5.41-2.9,7.58c-1.62,2.18-3.78,3.86-6.5,5.05c-2.72,1.19-5.85,1.79-9.4,1.79
				C243.52,132.65,240.04,131.82,237.04,130.15"/>
			
				<rect x="271.29" y="94.74" style="clip-path:url(#SVGID_00000011715167759689763490000008111242951364317862_);fill:#2CBCB3;" width="8.53" height="36.86"/>
			<path style="clip-path:url(#SVGID_00000011715167759689763490000008111242951364317862_);fill:#2CBCB3;" d="M314.05,115.2
				c-1.23,2.09-2.91,3.66-5.06,4.71l6.48,11.69h-9.69l-5.79-10.22h-4.48v10.22h-8.53V94.74h15.69c2.53,0,4.79,0.57,6.79,1.71
				c2,1.14,3.57,2.72,4.71,4.74c1.14,2.02,1.71,4.31,1.71,6.87C315.89,110.73,315.28,113.11,314.05,115.2 M295.51,114.43h5.85
				c1.72,0,3.13-0.6,4.24-1.79c1.11-1.19,1.66-2.72,1.66-4.58c0-1.86-0.55-3.39-1.66-4.58c-1.11-1.19-2.52-1.79-4.24-1.79h-5.85
				V114.43z"/>
			<polygon style="clip-path:url(#SVGID_00000011715167759689763490000008111242951364317862_);fill:#2CBCB3;" points="
				337.53,113.01 352.01,131.6 341.85,131.6 329.74,115.33 329.74,131.6 321.21,131.6 321.21,94.74 329.74,94.74 329.74,111.11 
				341.9,94.74 352.01,94.74 			"/>
			<path style="clip-path:url(#SVGID_00000011715167759689763490000008111242951364317862_);fill:#2CBCB3;" d="M359.15,129.02
				c-2.65-2.35-3.98-5.65-3.98-9.9V94.74h8.48v23.85c0,2.07,0.57,3.69,1.71,4.84c1.14,1.16,2.69,1.74,4.66,1.74
				c1.96,0,3.52-0.58,4.66-1.74c1.14-1.16,1.71-2.77,1.71-4.84V94.74h8.53v24.38c0,4.25-1.33,7.55-4,9.9s-6.3,3.53-10.9,3.53
				C365.42,132.55,361.8,131.37,359.15,129.02"/>
			<polygon style="clip-path:url(#SVGID_00000011715167759689763490000008111242951364317862_);fill:#2CBCB3;" points="
				391.24,94.74 399.77,94.74 399.77,124.02 413.47,124.02 413.47,131.6 391.24,131.6 			"/>
			<path style="clip-path:url(#SVGID_00000011715167759689763490000008111242951364317862_);fill:#2CBCB3;" d="M440.22,127.12
				h-13.06l-1.26,4.48h-9l12.48-36.86h8.58l12.53,36.86h-9L440.22,127.12z M429.21,93.21L427.16,89l11.37-4.69l2.05,4.16
				L429.21,93.21z M438.32,120.43l-4.63-16.38l-4.63,16.38H438.32z"/>
			<path style="clip-path:url(#SVGID_00000011715167759689763490000008111242951364317862_);fill:#2CBCB3;" d="M481.66,115.2
				c-1.23,2.09-2.92,3.66-5.06,4.71l6.48,11.69h-9.69l-5.79-10.22h-4.48v10.22h-8.53V94.74h15.69c2.53,0,4.79,0.57,6.79,1.71
				c2,1.14,3.57,2.72,4.71,4.74c1.14,2.02,1.71,4.31,1.71,6.87C483.5,110.73,482.89,113.11,481.66,115.2 M463.12,114.43h5.85
				c1.72,0,3.13-0.6,4.24-1.79c1.11-1.19,1.66-2.72,1.66-4.58c0-1.86-0.55-3.39-1.66-4.58c-1.11-1.19-2.52-1.79-4.24-1.79h-5.85
				V114.43z"/>
			<polygon style="clip-path:url(#SVGID_00000011715167759689763490000008111242951364317862_);fill:#2CBCB3;" points="
				488.82,94.74 497.56,94.74 510.36,118.59 510.36,94.74 518.52,94.74 518.52,131.6 509.78,131.6 496.98,107.74 496.98,131.6 
				488.82,131.6 			"/>
			<path style="clip-path:url(#SVGID_00000011715167759689763490000008111242951364317862_);fill:#2CBCB3;" d="M523.68,89.16
				l10.16-5.21l2.48,4.11l-10.22,5.21L523.68,89.16z M525.68,94.74h8.53v36.86h-8.53V94.74z"/>
			<polygon style="clip-path:url(#SVGID_00000011715167759689763490000008111242951364317862_);fill:#2CBCB3;" points="
				229.85,135.92 252.39,135.92 252.39,142.76 238.38,142.76 238.38,151.14 252.39,151.14 252.39,157.82 238.38,157.82 
				238.38,165.93 252.39,165.93 252.39,172.78 229.85,172.78 			"/>
			<polygon style="clip-path:url(#SVGID_00000011715167759689763490000008111242951364317862_);fill:#2CBCB3;" points="
				275.45,154.19 289.93,172.78 279.77,172.78 267.66,156.51 267.66,172.78 259.13,172.78 259.13,135.92 267.66,135.92 
				267.66,152.3 279.82,135.92 289.93,135.92 			"/>
			<path style="clip-path:url(#SVGID_00000011715167759689763490000008111242951364317862_);fill:#2CBCB3;" d="M297.67,171.2
				c-2.98-1.76-5.27-4.11-6.85-7.08c-1.58-2.97-2.37-6.22-2.37-9.77c0-3.54,0.79-6.8,2.37-9.77c1.58-2.97,3.86-5.33,6.85-7.08
				c2.98-1.76,6.48-2.63,10.48-2.63s7.49,0.88,10.48,2.63c2.98,1.76,5.27,4.12,6.85,7.08c1.58,2.97,2.37,6.22,2.37,9.77
				c0,3.55-0.79,6.8-2.37,9.77c-1.58,2.97-3.86,5.33-6.85,7.08c-2.98,1.75-6.48,2.63-10.48,2.63S300.66,172.95,297.67,171.2
				 M313.97,164.62c1.63-1.05,2.87-2.48,3.71-4.29c0.84-1.81,1.26-3.8,1.26-5.98c0-2.18-0.42-4.17-1.26-5.98
				c-0.84-1.81-2.08-3.24-3.71-4.29c-1.63-1.05-3.57-1.58-5.82-1.58c-2.28,0-4.24,0.53-5.87,1.58c-1.63,1.05-2.87,2.48-3.71,4.29
				c-0.84,1.81-1.25,3.8-1.21,5.98c-0.03,2.18,0.37,4.17,1.21,5.98c0.84,1.81,2.08,3.24,3.71,4.29c1.63,1.05,3.59,1.58,5.87,1.58
				C310.4,166.2,312.34,165.67,313.97,164.62"/>
			<polygon style="clip-path:url(#SVGID_00000011715167759689763490000008111242951364317862_);fill:#2CBCB3;" points="
				332.8,135.92 341.54,135.92 354.33,159.77 354.33,135.92 362.5,135.92 362.5,172.78 353.75,172.78 340.96,148.93 340.96,172.78 
				332.8,172.78 			"/>
			<path style="clip-path:url(#SVGID_00000011715167759689763490000008111242951364317862_);fill:#2CBCB3;" d="M376.71,171.2
				c-2.98-1.76-5.26-4.11-6.85-7.08c-1.58-2.97-2.37-6.22-2.37-9.77c0-3.54,0.79-6.8,2.37-9.77c1.58-2.97,3.86-5.33,6.85-7.08
				c2.98-1.76,6.48-2.63,10.48-2.63s7.49,0.88,10.48,2.63c2.98,1.76,5.27,4.12,6.85,7.08c1.58,2.97,2.37,6.22,2.37,9.77
				c0,3.55-0.79,6.8-2.37,9.77c-1.58,2.97-3.86,5.33-6.85,7.08c-2.98,1.75-6.48,2.63-10.48,2.63S379.7,172.95,376.71,171.2
				 M393.01,164.62c1.63-1.05,2.87-2.48,3.71-4.29c0.84-1.81,1.26-3.8,1.26-5.98c0-2.18-0.42-4.17-1.26-5.98
				c-0.84-1.81-2.08-3.24-3.71-4.29c-1.63-1.05-3.57-1.58-5.82-1.58c-2.28,0-4.24,0.53-5.87,1.58c-1.63,1.05-2.87,2.48-3.71,4.29
				c-0.84,1.81-1.25,3.8-1.21,5.98c-0.03,2.18,0.37,4.17,1.21,5.98c0.84,1.81,2.08,3.24,3.71,4.29c1.63,1.05,3.59,1.58,5.87,1.58
				C389.44,166.2,391.38,165.67,393.01,164.62"/>
			<polygon style="clip-path:url(#SVGID_00000011715167759689763490000008111242951364317862_);fill:#2CBCB3;" points="
				411.83,135.92 421.73,135.92 431.53,162.09 441.32,135.92 451.01,135.92 451.01,172.78 442.85,172.78 442.85,148.87 
				434.69,172.78 428.37,172.78 420,148.71 420,172.78 411.83,172.78 			"/>
			
				<rect x="458.17" y="135.92" style="clip-path:url(#SVGID_00000011715167759689763490000008111242951364317862_);fill:#2CBCB3;" width="8.53" height="36.86"/>
			<polygon style="clip-path:url(#SVGID_00000011715167759689763490000008111242951364317862_);fill:#2CBCB3;" points="
				490.19,154.19 504.67,172.78 494.51,172.78 482.4,156.51 482.4,172.78 473.86,172.78 473.86,135.92 482.4,135.92 482.4,152.3 
				494.56,135.92 504.67,135.92 			"/>
			<polygon style="clip-path:url(#SVGID_00000011715167759689763490000008111242951364317862_);fill:#2CBCB3;" points="
				540.32,135.92 522.05,172.78 512.57,172.78 519.41,158.88 506.35,135.92 516.25,135.92 524.1,150.45 530.89,135.92 			"/>
		</g>
	</g>
</g>
</svg>
