<?xml version="1.0" encoding="UTF-8"?> <svg xmlns="http://www.w3.org/2000/svg" width="300" height="57" viewBox="0 0 300 57" fill="none"><path d="M71.7333 55.73L63.1311 0H51.0254L35.9042 34.24L20.7768 0H8.75239L0 55.73H12.2621L17.7613 19.4317L34.3964 55.6487H37.3368L53.9783 19.4317L59.4712 55.73H71.7333Z" fill="black"></path><path d="M79.4534 55.73H91.7906V43.3115H79.4534V55.73Z" fill="black"></path><path d="M137.173 12.7376L135.978 16.8041C132.237 13.5321 127.376 11.5426 121.801 11.5426C108.908 11.5426 99.273 21.2522 99.273 34.24C99.273 47.2091 108.908 57 121.801 57C127.301 57 132.08 55.0856 135.728 51.8261L136.766 55.73H145.85V12.7376H137.173ZM122.759 46.0142C115.996 46.0142 111.06 40.9216 111.06 34.24C111.06 27.4646 115.996 22.4471 122.759 22.4471C129.522 22.4471 134.458 27.4646 134.458 34.24C134.458 40.9967 129.522 46.0142 122.759 46.0142Z" fill="black"></path><path d="M179.039 12.4998C173.471 12.4998 169.655 14.2578 166.546 18.0741L164.469 12.7376H157.068V55.73H168.698V33.4392C168.698 26.4261 171.244 23.4857 177.769 23.4857H182.862V12.4998H179.039Z" fill="black"></path><path d="M210.489 45.3823C206.191 45.3823 203.801 42.9924 203.801 38.8446V22.1344H215.5V12.7376H203.645V1.58908H201.411L184.451 19.5881V22.1344H192.183V40.4462C192.183 49.9118 197.989 55.73 207.467 55.73H215.75V45.3823H210.489Z" fill="black"></path><path d="M265.418 34.1587C265.418 21.7402 256.347 11.5426 243.127 11.5426C230.396 11.5426 220.837 21.3335 220.837 34.24C220.837 47.1277 230.471 57 243.127 57C253.156 57 261.364 51.0316 264.461 41.6411H252.28C250.535 44.7379 247.188 46.6585 243.127 46.6585C237.484 46.6585 233.649 43.3866 232.623 37.4932H265.18C265.343 36.3796 265.418 35.2723 265.418 34.1587ZM243.127 21.4899C248.383 21.4899 252.124 24.3678 253.8 29.6167H232.942C234.294 24.5242 237.954 21.4899 243.127 21.4899Z" fill="black"></path><path d="M295.673 12.4998C290.105 12.4998 286.283 14.2578 283.173 18.0741L281.102 12.7376H273.695V55.73H285.325V33.4392C285.325 26.4261 287.872 23.4857 294.397 23.4857H299.489V12.4998H295.673Z" fill="black"></path></svg> 