<svg xmlns="http://www.w3.org/2000/svg" width="123" height="39" fill="none"><path d="M5.487 17.806H.669V0H7.36l1.767 5.182 1.579 6.166 1.579-6.166L14.05 0h6.691v17.806h-4.817V13.18l.776-8.743-2.248 6.91-1.151 3.268H8.109l-1.15-3.268-2.249-6.91.777 8.744v4.624Zm23.689.265c-4.229 0-6.878-2.923-6.878-6.83 0-3.906 2.65-6.83 6.878-6.83 4.443 0 7.093 2.924 7.093 6.83 0 3.907-2.65 6.83-7.093 6.83Zm.107-3.827c1.231 0 2.088-.717 2.088-3.003 0-2.285-.857-3.003-2.088-3.003s-2.087.718-2.087 3.003c0 2.286.856 3.004 2.087 3.004Zm13.204 3.827c-3.158 0-5.112-2.338-5.112-6.83 0-4.49 1.954-6.83 4.844-6.83 2.837 0 3.827 1.967 4.175 4.146V0h4.818v17.806h-4.818v-3.827c-.32 2.152-1.07 4.092-3.907 4.092Zm-.214-6.83c0 1.94.695 3.216 2.248 3.216 1.017 0 1.873-.505 1.873-2.63v-1.17c0-2.126-.91-2.631-1.98-2.631-1.472 0-2.141 1.275-2.141 3.215Zm17.618 6.83c-4.55 0-7.066-2.843-7.066-6.83 0-3.986 2.57-6.83 6.611-6.83 4.523 0 6.477 3.004 6.477 6.166 0 .638-.053 1.621-.134 1.94h-8.484c.294 1.276 1.338 1.728 2.676 1.728 1.312 0 2.275-.373 2.784-1.515l2.917 2.763c-1.017 1.303-2.756 2.578-5.78 2.578Zm-.428-10.098c-1.312 0-2.141.69-2.248 2.073h4.389c-.08-1.33-.696-2.073-2.141-2.073Zm13.012 9.833h-4.817V4.677h4.817v4.438c.401-2.259 1.66-4.703 4.363-4.703 2.301 0 3.158 1.435 3.158 3.614 0 1.594-.536 2.95-.91 3.614H74.67c.481-.558 1.017-1.568 1.017-2.365 0-.744-.322-1.25-1.098-1.25-1.097 0-2.114 1.037-2.114 3.163v6.618Zm13.382 0H81.04V4.677h4.817v3.907c.375-2.18 1.58-4.172 4.336-4.172 2.462 0 3.96 1.514 3.96 4.198v9.196h-4.817V10.47c0-1.595-.294-2.445-1.74-2.445-1.391 0-1.739.505-1.739 2.63v7.15Zm14.677-14.537h-3.667L98.5 0h5.326l-3.292 3.269Zm.508 14.537h-4.817V4.677h4.817v13.129ZM7.039 38.973c-3.051 0-5.728-.983-7.039-1.993l1.793-3.455c1.526 1.037 3.8 1.94 5.38 1.94.722 0 1.07-.159 1.07-.531 0-.399-.455-.585-1.793-.93l-1.82-.479c-2.703-.717-4.202-1.7-4.202-3.906 0-2.71 2.275-4.279 5.781-4.279 2.918 0 5.032 1.09 6.076 1.86l-1.633 3.402c-1.713-1.249-3.586-1.78-4.898-1.78-.669 0-.99.212-.99.531 0 .399.375.585 2.088 1.09l1.365.398c2.863.824 4.308 1.887 4.308 4.013 0 2.472-2.087 4.12-5.486 4.12Zm11.516-.265h-4.817V25.579h4.817v3.907c.375-2.18 1.58-4.172 4.336-4.172 2.462 0 3.96 1.514 3.96 4.198v9.196h-4.817v-7.335c0-1.595-.294-2.445-1.74-2.445-1.391 0-1.739.505-1.739 2.63v7.15ZM37.087 24.17h-4.255l-2.436-3.268h3.694l.883 1.595.856-1.595h3.694l-2.436 3.269Zm-1.686 14.803c-4.55 0-7.066-2.843-7.066-6.83 0-3.986 2.57-6.83 6.611-6.83 4.523 0 6.477 3.004 6.477 6.166 0 .638-.054 1.621-.134 1.94h-8.484c.294 1.276 1.338 1.728 2.676 1.728 1.312 0 2.275-.372 2.784-1.515l2.917 2.764c-1.017 1.302-2.757 2.577-5.781 2.577Zm-.428-10.098c-1.312 0-2.141.69-2.248 2.073h4.389c-.08-1.33-.696-2.073-2.141-2.073Zm13.012 9.833h-4.818V25.579h4.818v3.88c.348-2.179 1.418-4.145 4.336-4.145 2.301 0 3.693 1.514 3.693 4.145.348-2.179 1.419-4.145 4.336-4.145 2.302 0 3.693 1.514 3.693 4.198v9.196h-4.817v-7.335c0-1.595-.295-2.445-1.606-2.445-1.258 0-1.606.505-1.606 2.63v7.15h-4.817v-7.335c0-1.595-.295-2.445-1.606-2.445-1.258 0-1.606.505-1.606 2.63v7.15Zm24.421.265c-4.229 0-6.878-2.923-6.878-6.83 0-3.906 2.65-6.83 6.878-6.83 4.443 0 7.093 2.924 7.093 6.83 0 3.907-2.65 6.83-7.093 6.83Zm.107-3.826c1.231 0 2.088-.718 2.088-3.003 0-2.286-.857-3.003-2.088-3.003-1.23 0-2.087.717-2.087 3.003 0 2.285.856 3.003 2.087 3.003Zm17.405 3.561h-6.076l-4.55-13.129h5.353l1.312 5.289.963 5.342.937-5.342 1.311-5.289h5.3l-4.55 13.129Zm9.974 0h-4.817V25.579h4.817v3.907c.375-2.18 1.579-4.172 4.336-4.172 2.462 0 3.961 1.514 3.961 4.198v9.196h-4.817v-7.335c0-1.595-.295-2.445-1.74-2.445-1.392 0-1.74.505-1.74 2.63v7.15Zm13.286.292c-1.927 0-3.453-.957-3.453-3.322 0-2.126 1.204-3.295 4.148-4.199l3.56-1.09c-.134-.744-.535-1.063-1.606-1.063-1.525 0-3.238.824-4.336 2.047l-2.141-3.508c1.66-1.488 3.988-2.551 6.745-2.551 3.399 0 5.487 1.647 5.487 5.022v3.96c0 .585.16.77.642.77H123v3.642h-2.73c-1.499 0-2.971-.638-2.971-2.498V35.2c-.401 1.7-1.418 3.8-4.121 3.8Zm.829-3.986c0 .425.321.664 1.017.664 1.579 0 2.275-.611 2.275-1.966v-.4l-2.168.772c-.91.318-1.124.584-1.124.93Z" fill="#C70039"/></svg>